<svg width="486" height="364" viewBox="0 0 486 364" fill="none" xmlns="http://www.w3.org/2000/svg">
<g clip-path="url(#clip0_710_1123)">
<path d="M336.067 106.368C302.529 74.937 263.235 66.8227 252.853 65.1671C259.85 46.3002 270.657 18.2533 273.349 14.1032C275.09 13.8846 276.843 13.7843 278.597 13.8031C286.225 13.8031 302.56 15.3865 326.213 26.0153C360.372 41.3635 369.451 58.6263 371.252 62.849L336.067 106.368Z" fill="white"/>
<path d="M278.597 15.8731C286.06 15.8731 302.064 17.4358 325.334 27.899C356.191 41.7879 366.159 57.312 368.809 62.5592L335.871 103.346C319.579 88.6875 300.556 77.3843 279.891 70.0833C272.014 67.2485 263.92 65.0577 255.689 63.5319C263.422 42.7607 271.827 21.3789 274.653 16.0386C275.575 15.9559 276.899 15.8731 278.617 15.8731H278.597ZM278.617 11.7333C276.514 11.6892 274.412 11.8347 272.335 12.168C269.912 12.9752 250.038 66.8543 250.038 66.8543C250.038 66.8543 297.209 71.6666 336.286 109.411L373.55 63.2316C373.55 63.2316 367.339 42.264 326.969 24.1318C303.337 13.503 286.868 11.7126 278.535 11.7126L278.617 11.7333Z" fill="#A0C6F4"/>
<path d="M256.942 71.0455C256.942 71.0455 303.327 75.7238 331.896 101.96" stroke="white" stroke-linecap="round" stroke-linejoin="round"/>
<path d="M296.98 68.7793L314.288 35.1437L332.072 70.218L296.98 68.7793Z" fill="#A0C6F4"/>
<path d="M300.345 68.3028L317.653 34.6675L335.436 69.7415L300.345 68.3028Z" stroke="white" stroke-linecap="round" stroke-linejoin="round"/>
<path d="M284.114 9.68408C284.114 9.68408 336.14 14.4034 368.436 52.779" stroke="white" stroke-linecap="round" stroke-linejoin="round"/>
<path d="M310.686 158.736C307.829 156.666 305.956 155.228 305.956 155.228C306.742 154.193 319.257 140.852 326.503 130.109C326.503 130.109 311.846 159.595 310.686 158.736Z" fill="white"/>
<path d="M133.377 61.5862C134.775 63.915 135.385 62.9831 139.412 62.621C143.439 62.2588 149.173 65.2499 151.182 70.2075C153.19 75.1644 152.579 75.9307 151.492 76.5512C150.405 77.1723 142.673 78.1036 142.362 79.656" stroke="white" stroke-linecap="round" stroke-linejoin="round"/>
<path d="M237.688 313.552L234.076 307.456L221.281 328.787L224.636 331.374L237.688 313.552Z" fill="#F9865F"/>
<path d="M152.713 260.719C152.713 260.719 146.078 249.945 148.925 244.657L170.083 246.923L152.713 260.719Z" fill="#F9865F"/>
<path d="M152.714 260.719L153.977 263.637L150.074 278.872C149.827 279.813 149.852 280.804 150.143 281.732C150.434 282.66 150.98 283.487 151.72 284.119L171.067 255.524C171.954 254.207 172.342 252.618 172.162 251.042C171.982 249.465 171.245 248.005 170.083 246.923L165.756 242.908L152.714 260.719Z" fill="black"/>
<path d="M142.362 79.6975C148.418 79.5528 156.099 79.1697 154.556 74.523C153.014 69.8762 147.31 58.4091 134.216 61.8553C134.216 61.8553 129.609 65.6949 135.365 72.6084C141.12 79.5219 142.362 79.6975 142.362 79.6975Z" fill="#2A1E33"/>
<path d="M173.023 247.13C173.023 247.13 162.672 216.6 171.429 203.197C178.675 192.134 202.255 210.121 205.485 212.512L222.368 182.064C222.368 182.064 218.476 176.599 208.911 171.249C199.347 165.898 159.815 149.877 141.234 179.186C134.371 190.012 134.268 236.491 147.445 254.302L173.023 247.13Z" fill="#3B3B5F"/>
<path d="M173.023 247.13C173.023 247.13 162.672 216.6 171.429 203.197C178.675 192.133 202.255 210.121 205.485 212.512" stroke="white" stroke-linecap="round" stroke-linejoin="round"/>
<path d="M222.368 182.064C214.687 190.146 191.925 229.515 186.801 248.3C179.959 273.47 182.536 294.344 220.173 335.235L238.361 308.74C238.361 308.74 225.566 289.324 228.009 271.017C231.467 244.533 250.316 218.855 259.85 202.566L222.368 182.064Z" fill="#3B3B5F"/>
<path d="M225.256 185.479L255.513 209.231L264.56 195.487L225.256 185.479Z" fill="#8C3C6C"/>
<path d="M399.077 160.516C403.797 161.53 407.392 163.328 409.863 165.908C412.337 168.496 411.219 169.841 410.318 170.628C409.418 171.414 405.929 170.513 402.896 167.823C399.864 165.132 399.077 160.516 399.077 160.516Z" fill="#FF8A66"/>
<path d="M305.956 155.228C306.742 154.193 319.257 140.852 326.503 130.109C326.503 130.109 348.397 154.638 350.777 155.435C351.657 155.724 356.988 155.652 363.696 155.59C374.958 155.466 389.936 155.352 393.249 157.018C398.528 159.646 401.696 160.971 403.01 164.666C404.325 168.361 404.853 170.772 401.696 170.99C398 171.259 395.63 166.508 395.63 166.508C392.149 168.378 388.525 169.966 384.792 171.259C384.792 171.259 356.729 182.146 337.973 176.879C332.869 175.44 305.956 155.228 305.956 155.228Z" fill="#F9865F"/>
<path d="M135.851 57.25C133.45 58.1711 131.98 59.2681 133.377 61.5864C134.775 63.9046 135.385 62.9837 139.412 62.6216C143.439 62.2588 149.173 65.2499 151.182 70.2075C153.189 75.1651 152.579 75.9308 151.492 76.5519C150.405 77.1723 142.673 78.1043 142.363 79.6567C142.052 81.2091 145.468 85.773 152.621 85.4726L154.318 85.1624C154.318 85.1624 169.296 99.7861 171.471 101.949C173.644 104.112 189.565 114.907 198.384 117.1C205.05 118.767 218.569 116.625 226.684 115.031C230.628 114.255 233.31 113.623 233.31 113.623C233.31 113.623 227.213 102.642 225.97 85.773C225.97 85.773 211.396 88.1121 201.707 90.2436C201.707 90.2436 179.099 77.6383 168.106 72.0603C168.106 72.0603 158.5 60.3031 154.007 58.7507C149.515 57.1982 139.102 56.0184 135.851 57.25Z" fill="#F9865F"/>
<path d="M226.643 115.082C230.587 114.306 233.268 113.675 233.268 113.675C233.268 113.675 225.888 104.36 224.656 87.5114C224.656 87.5114 221.322 91.1026 222.358 100.655C223.662 112.723 226.643 115.082 226.643 115.082Z" fill="white"/>
<path d="M224.345 85.6178C224.345 85.6178 224.552 106.244 230.08 114.844L232.057 114.048C232.057 114.048 206.023 144.505 197.597 164.407C196.221 167.667 251.662 203.073 259.85 202.576C259.85 202.576 286.867 161.355 296.08 149.132L306.018 156.832C306.018 156.832 325.489 137.106 326.534 130.11C326.534 130.11 307.725 107.227 292.374 100.521C277.023 93.8143 263.163 82.3474 246.632 82.7095C232.326 82.9271 224.345 85.6178 224.345 85.6178Z" fill="#471C36"/>
<path d="M305.976 156.831L296.049 149.132L297.633 144.826L305.976 156.831Z" fill="white"/>
<path d="M321.089 75.2887C319.35 80.7017 314.33 96.3395 308.729 98.2645C303.129 100.19 297.343 97.7782 297.343 97.7782L291.381 100.821C290.718 102.818 286.008 104.536 279.932 104.775C275.429 104.95 272.686 99.165 274.022 94.9836C274.632 93.0585 276.92 83.5995 276.92 83.5995C276.92 83.5995 281.744 65.8401 286.236 62.176C290.729 58.5125 294.848 54.8694 306.701 59.6613C324.754 66.9884 321.089 75.2887 321.089 75.2887Z" fill="#F9865F"/>
<path d="M285.098 76.0649C284.301 79.3767 280.854 86.0214 278.586 84.8206C276.32 83.6205 275.533 80.5775 277.127 74.73C278.721 68.8825 280.056 55.6147 284.569 53.224C289.083 50.8333 291.081 53.6173 291.081 53.6173C291.081 53.6173 289.083 43.9303 294.931 42.5952C294.931 42.5952 296.919 41.6741 296.122 48.3081C296.896 46.4839 298.258 44.9707 299.991 44.0088C301.724 43.0468 303.728 42.6914 305.687 42.9988C312.933 43.7957 315.51 54.0209 315.51 54.0209C315.72 53.1764 316.221 52.4329 316.926 51.9217C317.63 51.4105 318.492 51.1644 319.361 51.2266C322.684 51.2266 327.735 56.1426 326.534 61.576C326.534 61.576 335.032 58.9162 339.546 65.7159C344.059 72.5151 343.531 79.9255 332.641 82.8443C321.255 85.8972 321.359 72.6189 319.629 70.8904C317.901 69.1618 316.048 67.175 309.672 69.566C303.295 71.9564 296.649 64.9187 296.649 64.9187C296.649 64.9187 295.614 73.4155 294.528 74.2331C293.441 75.0507 291.339 76.0964 291.867 72.1115C292.395 68.1273 293.068 68.5204 292.664 67.4648C292.261 66.4093 290.47 63.0455 286.692 66.0057C282.448 69.2552 285.098 76.0649 285.098 76.0649Z" fill="#2A1E33"/>
<path d="M286.909 77.5345C284.373 75.4648 282.613 71.6561 284.839 67.9098C287.064 64.1635 290.718 63.6561 291.826 65.0738C292.934 66.4921 293.368 68.8825 292.322 71.7185" stroke="#2A1E33" stroke-linecap="round" stroke-linejoin="round"/>
<path d="M224.645 331.374L225.908 334.282L222.006 349.517C221.759 350.457 221.783 351.449 222.074 352.377C222.365 353.305 222.912 354.132 223.652 354.764L242.978 326.168C243.865 324.852 244.253 323.264 244.072 321.687C243.892 320.11 243.155 318.65 241.995 317.568L237.668 313.552L224.645 331.374Z" fill="black"/>
<path d="M291.08 53.6172C291.08 53.6172 289.59 48.8047 285.149 47.5317" stroke="#2A1E33" stroke-linecap="round" stroke-linejoin="round"/>
<path d="M196.935 162.948L250.534 88.0911" stroke="white" stroke-linecap="round" stroke-linejoin="round"/>
<path d="M272.634 93.328C270.699 95.8426 269.819 106.648 278.711 107.341C283.782 107.845 288.882 106.726 293.275 104.143" stroke="white" stroke-linecap="round" stroke-linejoin="round"/>
<path d="M153.956 58.8023C153.956 58.8023 160.084 66.9062 161.047 69.7934" stroke="white" stroke-linecap="round" stroke-linejoin="round"/>
<path d="M383.384 167.502C383.384 167.502 387.524 170.866 395.63 166.467C398.58 164.883 396.478 161.148 392.732 162.079C388.984 163.01 384.554 161.613 384.554 161.613" stroke="white" stroke-linecap="round" stroke-linejoin="round"/>
<path d="M400.484 160.982C400.484 160.982 404.408 165.567 404.304 168.289" stroke="white" stroke-linecap="round" stroke-linejoin="round"/>
<path d="M342.682 160.485C342.682 160.485 346.233 155.756 350.777 155.435" stroke="white" stroke-linecap="round" stroke-linejoin="round"/>
<path d="M192.949 97.9333C192.949 97.9333 195.019 91.4752 201.665 90.2955" stroke="white" stroke-linecap="round" stroke-linejoin="round"/>
<path d="M210.951 195.922L203.022 211.042C203.022 211.042 176.895 255.244 185.766 283.808" stroke="white" stroke-linecap="round" stroke-linejoin="round"/>
<path d="M234.096 246.633L259.799 202.576C259.799 202.576 293.493 153.717 296.939 146.876L308.834 124.883" stroke="white" stroke-linecap="round" stroke-linejoin="round"/>
<path d="M200.537 167.647C200.537 167.647 246.259 200.972 259.809 202.576" stroke="white" stroke-linecap="round" stroke-linejoin="round"/>
<path d="M224.345 85.6179C224.345 85.6179 224.345 106.534 229.946 115.103" stroke="white" stroke-linecap="round" stroke-linejoin="round"/>
<path d="M325.033 126.797C323.594 135.409 304.517 153.51 304.517 153.51" stroke="white" stroke-linecap="round" stroke-linejoin="round"/>
<path d="M182.639 234.142C184.138 234.142 185.352 232.928 185.352 231.43C185.352 229.932 184.138 228.719 182.639 228.719C181.142 228.719 179.928 229.932 179.928 231.43C179.928 232.928 181.142 234.142 182.639 234.142Z" fill="white"/>
<path d="M437.325 289.749L435.824 279.368L444.675 285.257L440.047 286.261L437.325 289.749Z" stroke="white" stroke-linecap="round" stroke-linejoin="round"/>
<path d="M143.605 112.537C126.825 97.7263 99.094 134.643 200.537 252.149C259.074 319.938 305.086 326.013 311.297 302.427C322.476 260.118 282.106 249.428 297.136 265.997C318.978 290.091 381.096 295.182 427.398 272.703C473.079 250.514 444.995 216.062 442.159 214.043" stroke="white" stroke-linecap="round" stroke-linejoin="round"/>
<path d="M428.164 275.198C429.662 275.198 430.876 273.984 430.876 272.486C430.876 270.988 429.662 269.775 428.164 269.775C426.666 269.775 425.452 270.988 425.452 272.486C425.452 273.984 426.666 275.198 428.164 275.198Z" fill="white"/>
<path d="M388.663 294.644L469.124 249.293" stroke="white" stroke-linecap="round" stroke-linejoin="round"/>
<path d="M145.282 117.442C146.779 117.442 147.993 116.228 147.993 114.73C147.993 113.233 146.779 112.019 145.282 112.019C143.783 112.019 142.569 113.233 142.569 114.73C142.569 116.228 143.783 117.442 145.282 117.442Z" fill="white"/>
<path d="M214.501 64.5151C217.72 64.5151 220.329 61.9066 220.329 58.6884C220.329 55.4704 217.72 52.8617 214.501 52.8617C211.282 52.8617 208.673 55.4704 208.673 58.6884C208.673 61.9066 211.282 64.5151 214.501 64.5151Z" fill="#FF6D66"/>
<path d="M108.834 14.2794C108.326 14.2773 107.829 14.4261 107.406 14.7069C106.982 14.9877 106.652 15.3878 106.455 15.8566C106.26 16.3254 106.207 16.8418 106.305 17.3404C106.403 17.8389 106.647 18.2972 107.005 18.6572C107.364 19.0172 107.821 19.2627 108.319 19.3626C108.818 19.4625 109.335 19.4122 109.804 19.2183C110.274 19.0243 110.676 18.6953 110.958 18.2731C111.24 17.8507 111.391 17.3541 111.391 16.846C111.391 16.1671 111.122 15.5158 110.643 15.0348C110.164 14.5537 109.514 14.2821 108.834 14.2794Z" fill="#A0C6F4"/>
<path d="M451.868 332.192C453.281 332.192 454.425 331.047 454.425 329.636C454.425 328.224 453.281 327.079 451.868 327.079C450.456 327.079 449.312 328.224 449.312 329.636C449.312 331.047 450.456 332.192 451.868 332.192Z" fill="#FAD8B0"/>
<path d="M406.126 214.033L378.581 201.127C378.095 200.887 377.688 200.515 377.405 200.053C377.122 199.591 376.976 199.059 376.984 198.517C376.992 197.975 377.153 197.447 377.448 196.993C377.743 196.54 378.161 196.179 378.653 195.953L429.851 173.432C430.21 173.273 430.598 173.192 430.99 173.192C431.382 173.192 431.77 173.273 432.128 173.432L467.323 188.522L406.126 214.033Z" fill="#2A1E33"/>
<path d="M404.459 171.6C404.521 182.984 406.157 214.033 406.157 214.033L467.354 188.48L465.977 145.272C465.96 144.659 465.79 144.06 465.485 143.528C465.179 142.997 464.747 142.55 464.226 142.226C463.705 141.902 463.112 141.712 462.501 141.673C461.889 141.634 461.277 141.746 460.719 142.001L408.041 166.012C406.966 166.496 406.055 167.282 405.419 168.274C404.784 169.266 404.45 170.422 404.459 171.6Z" fill="#121212"/>
<path d="M406.126 214.033L467.324 188.48L465.947 145.271C465.947 145.271 465.543 140.552 460.688 142.001" stroke="white" stroke-linecap="round" stroke-linejoin="round"/>
<path d="M435.741 182.974L439.871 173.215" stroke="white" stroke-linecap="round" stroke-linejoin="round"/>
<path d="M439.872 182.974L444.002 173.215" stroke="white" stroke-linecap="round" stroke-linejoin="round"/>
<path d="M119.859 289.47C121.27 289.47 122.415 288.325 122.415 286.913C122.415 285.501 121.27 284.357 119.859 284.357C118.446 284.357 117.302 285.501 117.302 286.913C117.302 288.325 118.446 289.47 119.859 289.47Z" fill="#FF6D66"/>
<path d="M335.716 303.162C337.682 303.162 339.276 301.568 339.276 299.602C339.276 297.635 337.682 296.041 335.716 296.041C333.749 296.041 332.155 297.635 332.155 299.602C332.155 301.568 333.749 303.162 335.716 303.162Z" fill="#FF6D66"/>
<path d="M146.399 324.885C156.535 329.542 167.572 331.909 178.727 331.819C178.934 331.821 179.138 331.866 179.326 331.952C179.515 332.038 179.683 332.163 179.82 332.318C179.957 332.473 180.059 332.656 180.12 332.853C180.182 333.051 180.201 333.26 180.176 333.465L177.94 351.183C177.896 351.49 177.754 351.775 177.536 351.997C177.319 352.218 177.036 352.365 176.729 352.414C172.195 353.273 153.956 355.778 140.271 344.135C140.063 343.956 139.91 343.723 139.829 343.461C139.749 343.199 139.744 342.919 139.816 342.655L144.329 325.755C144.391 325.549 144.498 325.361 144.642 325.202C144.786 325.043 144.963 324.917 145.16 324.834C145.358 324.751 145.571 324.713 145.786 324.721C146 324.731 146.209 324.786 146.399 324.885Z" fill="#FFF7DC"/>
<path d="M148.004 330.06C148.004 330.06 155.891 341.144 158.707 342.738C161.523 344.332 176.719 335.266 176.719 335.266" stroke="white" stroke-linecap="round" stroke-linejoin="round"/>
<path d="M166.15 341.206L174.441 349.724" stroke="white" stroke-linecap="round" stroke-linejoin="round"/>
<path d="M154.629 339.561L144.93 342.2" stroke="white" stroke-linecap="round" stroke-linejoin="round"/>
<path d="M400.257 115.196H390.992V124.459H400.257V115.196Z" fill="#FFE1C0"/>
<path d="M392.245 240.103L394.998 244.874L397.751 249.645H392.245H386.748L389.491 244.874L392.245 240.103Z" fill="#A0C6F4"/>
<path d="M169.638 28.8926L170.363 7.24168C170.28 5.17181 171.108 4.58189 172.351 4.30246C178.23 3.00878 196.158 -0.97573 215.547 4.76818C218.062 5.51334 217.979 6.83806 217.938 8.03858L217.245 28.6753C217.194 29.0609 217.063 29.4317 216.861 29.7638C216.658 30.0957 216.388 30.3817 216.068 30.603C215.748 30.8244 215.385 30.9762 215.003 31.0488C214.621 31.1214 214.228 31.1132 213.849 31.0246C206.802 30.1813 199.704 29.8355 192.608 29.9896C185.783 29.9605 178.968 30.511 172.237 31.6352C170.311 31.9974 169.587 30.5899 169.638 28.8926Z" stroke="white" stroke-linecap="round" stroke-linejoin="round"/>
<path d="M176.18 25.7878L187.505 12.5405L200.03 24.9081C195.703 23.4488 176.18 25.7878 176.18 25.7878Z" stroke="white" stroke-linecap="round" stroke-linejoin="round"/>
<path d="M194.43 18.626L203.581 11.2986L211.292 16.8045L211.582 25.4048L200.02 24.846" stroke="white" stroke-linecap="round" stroke-linejoin="round"/>
<path d="M181.072 11.5033C181.177 10.4625 180.271 9.5188 179.048 9.39526C177.825 9.27167 176.749 10.0151 176.644 11.0558C176.538 12.0965 177.445 13.0403 178.667 13.1639C179.89 13.2875 180.967 12.544 181.072 11.5033Z" stroke="white" stroke-linecap="round" stroke-linejoin="round"/>
<path d="M388.466 310.096L396.054 324.109C396.851 325.361 396.572 326.075 395.878 326.717C392.627 329.728 382.722 338.898 368.23 342.479C366.356 342.945 365.911 342.065 365.497 341.289L358.251 327.928C358.141 327.663 358.088 327.379 358.094 327.093C358.1 326.807 358.165 326.524 358.286 326.265C358.407 326.005 358.58 325.773 358.795 325.583C359.01 325.394 359.261 325.252 359.534 325.164C364.326 323.085 368.961 320.664 373.405 317.92C377.782 315.427 381.939 312.564 385.827 309.361C386.862 308.326 387.897 308.999 388.466 310.096Z" stroke="white" stroke-linecap="round" stroke-linejoin="round"/>
<path d="M385.485 314.536L383.218 327.152L370.672 323.954C373.933 323.25 385.485 314.536 385.485 314.536Z" stroke="white" stroke-linecap="round" stroke-linejoin="round"/>
<path d="M376.531 325.837L373.436 333.889L366.501 333.258L363.116 327.897L370.662 323.954" stroke="white" stroke-linecap="round" stroke-linejoin="round"/>
<path d="M389.693 326.054C390.515 325.679 390.923 324.81 390.605 324.113C390.286 323.417 389.362 323.157 388.54 323.532C387.719 323.907 387.311 324.776 387.629 325.473C387.948 326.169 388.872 326.43 389.693 326.054Z" stroke="white" stroke-linecap="round" stroke-linejoin="round"/>
<path d="M351.512 70.8385L382.349 94.4354C382.51 94.559 382.693 94.6493 382.888 94.7012C383.084 94.7531 383.288 94.7654 383.488 94.7376C383.689 94.7092 383.882 94.6418 384.056 94.538C384.23 94.4348 384.382 94.2976 384.502 94.1351L389.16 87.8216C389.389 87.5071 389.487 87.1165 389.435 86.7309C389.383 86.3452 389.185 85.9948 388.881 85.752L358.479 61.4206C358.317 61.292 358.132 61.1975 357.933 61.1428C357.734 61.0881 357.527 61.0744 357.322 61.1024C357.118 61.1305 356.922 61.1998 356.745 61.306C356.568 61.4123 356.415 61.5534 356.295 61.7207L351.202 68.7583C350.973 69.0772 350.877 69.4733 350.936 69.8614C350.993 70.2495 351.2 70.5999 351.512 70.8385Z" fill="white" stroke="white" stroke-linecap="round" stroke-linejoin="round"/>
<path d="M353.79 69.783L361.263 75.0304L365.683 69.7626L358.199 63.5214L353.79 69.783Z" fill="#FF6D66"/>
<path d="M364.078 77.0796L371.572 83.0198L375.589 78.0832L368.043 71.9669L364.078 77.0796Z" fill="#FAD8B0"/>
<path d="M374.088 85.2965L381.572 90.5439L385.133 85.9695L378.053 80.0392L374.088 85.2965Z" fill="#A0C6F4"/>
<path d="M413.051 37.8448L420.079 96.8364C420.111 97.1466 420.205 97.4476 420.356 97.7214C420.506 97.9945 420.71 98.2349 420.955 98.4284C421.201 98.6212 421.482 98.7633 421.783 98.8455C422.084 98.9271 422.399 98.9481 422.708 98.9061L434.613 97.2708C435.21 97.1911 435.752 96.8815 436.125 96.4081C436.498 95.9347 436.672 95.3347 436.61 94.7352L430.845 35.392C430.813 35.0785 430.718 34.7747 430.565 34.4989C430.413 34.2231 430.206 33.9812 429.958 33.7876C429.709 33.5941 429.424 33.4531 429.119 33.3731C428.814 33.293 428.496 33.2757 428.184 33.3222L415.028 35.2471C414.423 35.3345 413.877 35.6558 413.508 36.1416C413.138 36.6275 412.974 37.2391 413.051 37.8448Z" fill="white" stroke="white" stroke-linecap="round" stroke-linejoin="round"/>
<path d="M416.643 39.2213L418.868 53.0274L429.365 52.2512L428.216 37.3791L416.643 39.2213Z" fill="#FF6D66"/>
<path d="M419.624 58.3054L421.104 72.8667L430.814 71.9978L429.468 57.1981L419.624 58.3054Z" fill="#91BA83"/>
<path d="M421.291 78.0728L423.516 91.8788L432.346 90.9061L431.28 76.7997L421.291 78.0728Z" fill="#FAD8B0"/>
<path d="M397.71 50.409L417.17 107.61C417.25 107.843 417.374 108.058 417.537 108.242C417.7 108.427 417.899 108.577 418.12 108.684C418.342 108.791 418.582 108.852 418.828 108.865C419.074 108.878 419.319 108.842 419.552 108.759L431.746 104.371C432.196 104.207 432.565 103.875 432.777 103.445C432.989 103.015 433.028 102.52 432.884 102.063L414.614 44.3029C414.537 44.063 414.412 43.8412 414.248 43.6508C414.083 43.4605 413.881 43.3054 413.655 43.1952C413.429 43.0849 413.182 43.0216 412.931 43.0093C412.679 42.9969 412.427 43.0356 412.192 43.1231L398.818 48.0804C398.363 48.2442 397.992 48.5808 397.784 49.0169C397.577 49.453 397.55 49.9533 397.71 50.409Z" fill="white" stroke="white" stroke-linecap="round" stroke-linejoin="round"/>
<path d="M401.654 51.4542L406.705 64.5046L416.808 61.5552L412.595 47.242L401.654 51.4542Z" fill="#A0C6F4"/>
<path d="M408.548 69.5036L413.02 83.4444L422.336 80.567L417.947 66.3679L408.548 69.5036Z" fill="#F9865F"/>
<path d="M414.283 88.4947L419.334 101.535L427.771 98.7404L423.796 85.1624L414.283 88.4947Z" fill="#FAD8B0"/>
<path d="M251.031 122.658H152.745C149.612 122.658 147.072 125.197 147.072 128.329V141.629C147.072 144.761 149.612 147.3 152.745 147.3H251.031C254.164 147.3 256.704 144.761 256.704 141.629V128.329C256.704 125.197 254.164 122.658 251.031 122.658Z" fill="#7595EC"/>
<path d="M214.201 129.913H160.622C159.587 129.913 158.749 130.751 158.749 131.786C158.749 132.821 159.587 133.66 160.622 133.66H214.201C215.235 133.66 216.074 132.821 216.074 131.786C216.074 130.751 215.235 129.913 214.201 129.913Z" fill="white"/>
<path d="M159.287 138.523H250.369" stroke="white" stroke-linecap="round" stroke-linejoin="round"/>
<path d="M112.683 76.2923L114.232 77.9887C114.547 78.3329 114.712 78.7884 114.691 79.255C114.67 79.7209 114.464 80.1597 114.12 80.4743L111.582 82.7918C111.238 83.1063 110.782 83.2713 110.316 83.2503C109.85 83.2293 109.411 83.0235 109.096 82.6793L107.546 80.9829L112.683 76.2923Z" fill="#91BA83"/>
<path d="M98.7262 72.9946L106.036 80.9952C106.414 81.4087 107.055 81.4377 107.469 81.0601L112.521 76.4461C112.935 76.0686 112.964 75.4271 112.586 75.0136L105.276 67.013C104.899 66.5996 104.257 66.5706 103.843 66.9482L98.7912 71.5621C98.3776 71.9397 98.3485 72.5812 98.7262 72.9946Z" stroke="white" stroke-linecap="round" stroke-linejoin="round"/>
<path d="M91.092 109.349H81.9106V117.731H91.092V109.349Z" fill="#FF6D66"/>
<path d="M81.9104 103.956V109.348H76.4238" stroke="white" stroke-linecap="round" stroke-linejoin="round"/>
<path d="M393.611 14.6829H384.429V23.0659H393.611V14.6829Z" fill="#FAD8B0"/>
<path d="M384.429 9.29089V14.683H378.943" stroke="white" stroke-linecap="round" stroke-linejoin="round"/>
<path d="M135.913 66.502C40.6807 27.0503 -32.5656 103.035 146.875 219.383C161.005 228.553 182.681 231.803 182.681 231.803" stroke="white" stroke-linecap="round" stroke-linejoin="round"/>
<path d="M48.3512 71.8631C49.849 71.8631 51.0632 70.6494 51.0632 69.152C51.0632 67.6545 49.849 66.4402 48.3512 66.4402C46.8534 66.4402 45.6392 67.6545 45.6392 69.152C45.6392 70.6494 46.8534 71.8631 48.3512 71.8631Z" fill="white"/>
<path d="M31.085 54.2589L34.0558 51.4025L40.8773 55.3146L44.314 65.9019L33.828 61.5138L31.085 54.2589Z" stroke="white" stroke-linecap="round" stroke-linejoin="round"/>
<path d="M34.0559 51.4025L31.085 54.2588L29.4185 52.2407L32.2651 49.5085L34.0559 51.4025Z" stroke="white" stroke-linecap="round" stroke-linejoin="round"/>
<path d="M44.3143 65.902L37.4927 58.4194" stroke="white" stroke-linecap="round" stroke-linejoin="round"/>
<path d="M60.7935 255.896L68.1842 294.023C68.2238 294.221 68.3025 294.41 68.4145 294.577C68.5272 294.745 68.6721 294.889 68.8405 295C69.0089 295.112 69.1977 295.189 69.3958 295.228C69.5939 295.266 69.7982 295.265 69.9957 295.224L77.6764 293.589C78.0615 293.506 78.3989 293.278 78.6193 292.952C78.8391 292.626 78.9245 292.227 78.8564 291.84L72.2939 253.474C72.2586 253.272 72.1818 253.078 72.0691 252.906C71.9571 252.733 71.8103 252.586 71.6395 252.471C71.468 252.358 71.2754 252.279 71.073 252.242C70.8705 252.204 70.6625 252.208 70.4619 252.253L61.9838 254.137C61.7901 254.174 61.6056 254.249 61.4408 254.358C61.2761 254.466 61.1344 254.606 61.0239 254.77C60.9133 254.933 60.836 255.116 60.7965 255.31C60.757 255.503 60.756 255.702 60.7935 255.896Z" fill="white" stroke="white" stroke-linecap="round" stroke-linejoin="round"/>
<path d="M63.2266 256.621L65.3377 265.51L72.1287 264.507L70.6794 254.872L63.2266 256.621Z" fill="#FF6D66"/>
<path d="M66.083 268.916L67.7391 278.323L74.0225 277.299L72.4388 267.715L66.083 268.916Z" fill="#FAD8B0"/>
<path d="M68.1118 281.708L70.2131 290.597L75.9169 289.532L74.5611 280.404L68.1118 281.708Z" fill="#A0C6F4"/>
<path d="M272.697 351.431L303.958 343.069L305.158 346.453L273.535 354.66L272.697 351.431Z" stroke="white" stroke-linecap="round" stroke-linejoin="round"/>
<path d="M268.349 347.064L269.26 349.9" stroke="white" stroke-linecap="round" stroke-linejoin="round"/>
<path d="M267.469 348.916L270.109 348.006" stroke="white" stroke-linecap="round" stroke-linejoin="round"/>
<path d="M266.837 357.9L268.535 363.261" stroke="white" stroke-linecap="round" stroke-linejoin="round"/>
<path d="M265.389 361.294L270.088 359.804" stroke="white" stroke-linecap="round" stroke-linejoin="round"/>
<path d="M259.685 349.061L261.911 356.161" stroke="white" stroke-linecap="round" stroke-linejoin="round"/>
<path d="M257.48 353.48L264.063 351.379" stroke="white" stroke-linecap="round" stroke-linejoin="round"/>
<path d="M44.6868 11.8057L24.9053 2.87415L25.7231 0.617981L45.6287 9.77718L44.6868 11.8057Z" stroke="white" stroke-width="0.67" stroke-linecap="round" stroke-linejoin="round"/>
<path d="M45.0908 15.9248L45.8258 14.0619" stroke="white" stroke-width="0.67" stroke-linecap="round" stroke-linejoin="round"/>
<path d="M46.3329 15.3349L44.5732 14.6829" stroke="white" stroke-width="0.67" stroke-linecap="round" stroke-linejoin="round"/>
<path d="M50.4731 10.9363L51.8705 7.43829" stroke="white" stroke-width="0.67" stroke-linecap="round" stroke-linejoin="round"/>
<path d="M52.6675 9.78763L49.6035 8.56641" stroke="white" stroke-width="0.67" stroke-linecap="round" stroke-linejoin="round"/>
<path d="M50.4316 18.5639L52.2949 13.9378" stroke="white" stroke-width="0.67" stroke-linecap="round" stroke-linejoin="round"/>
<path d="M53.4546 17.2081L49.1484 15.5004" stroke="white" stroke-width="0.67" stroke-linecap="round" stroke-linejoin="round"/>
<path d="M118.648 178.896C104.694 168.858 90.9887 153.251 97.0027 137.219C97.0027 137.219 106.619 130.813 121.846 138.824L137.084 146.876L118.648 178.896Z" fill="url(#paint0_linear_710_1123)"/>
<path d="M112.323 245.785C106.04 242.815 79.2503 228.863 74.4782 205.029C70.3376 184.454 86.1131 156.687 94.0012 144.412C93.4935 160.692 109.849 174.478 117.737 180.149C124.448 185.083 131.854 188.996 139.712 191.761L112.323 245.785Z" fill="white"/>
<path d="M92.7999 149.256C94.508 160.082 102.768 171.29 116.826 181.412C123.168 186.092 130.138 189.858 137.528 192.599L111.65 243.725C103.741 239.793 80.3781 226.483 76.0202 204.729C72.4077 186.649 84.6636 162.669 92.8209 149.256H92.7999ZM97.0234 137.22C97.0234 137.22 67.3669 177.293 72.9773 205.339C78.5876 233.386 113.058 247.772 113.058 247.772L141.907 190.85C132.891 187.549 127.032 184.858 118.668 178.835C104.715 168.796 91.0094 153.189 97.0234 137.158V137.22Z" fill="url(#paint1_linear_710_1123)"/>
<path d="M89.208 160.505C90.0779 165.718 92.1382 170.66 95.2301 174.947C98.3213 179.234 102.361 182.749 107.033 185.22" stroke="white" stroke-linecap="round" stroke-linejoin="round"/>
<path d="M115.646 190.975L131.742 199.596" stroke="white" stroke-linecap="round" stroke-linejoin="round"/>
<path d="M91.5059 183.502C91.5059 183.502 96.6816 195 113.347 202.472" stroke="white" stroke-linecap="round" stroke-linejoin="round"/>
<path d="M78.2769 185.22C78.2769 185.22 78.857 197.298 86.8998 201.324" stroke="white" stroke-linecap="round" stroke-linejoin="round"/>
<path d="M96.682 143.264C96.682 143.264 95.1912 158.788 118.647 178.897" stroke="white" stroke-linecap="round" stroke-linejoin="round"/>
<path d="M105.305 146.141C105.305 146.141 112.778 145.561 123.699 153.613" stroke="white" stroke-linecap="round" stroke-linejoin="round"/>
<path d="M70.1097 195.632C69.6336 203.322 70.5963 231.192 110.966 248.972" stroke="white" stroke-linecap="round" stroke-linejoin="round"/>
<path d="M327.932 180.128L310.811 214.437C310.811 214.437 322.425 218.711 313.346 232.031C313.346 232.031 334.815 240.931 348.862 217.821C362.909 194.71 327.932 180.128 327.932 180.128Z" fill="url(#paint2_linear_710_1123)"/>
<path d="M288.741 284.988C280.077 284.988 270.937 281.449 261.548 274.463L293.576 221.391L312.632 233.386L312.756 233.438C316.087 234.66 319.612 235.27 323.16 235.239C329.178 235.276 335.056 233.418 339.96 229.929L316.545 270.033C316.493 270.106 306.411 285.019 288.741 285.019V284.988Z" fill="white"/>
<path d="M294.093 223.565L311.69 234.649L311.918 234.794L312.156 234.887C315.677 236.188 319.405 236.84 323.16 236.812C327.473 236.828 331.742 235.933 335.685 234.183L315.251 269.133C314.589 270.106 305.106 283.436 288.751 283.436C280.77 283.436 272.324 280.279 263.608 274.049L294.093 223.565ZM348.862 217.81C340.922 230.871 330.623 233.707 323.16 233.707C319.814 233.735 316.491 233.163 313.346 232.02L293.068 219.259L259.54 274.856C270.74 283.487 280.543 286.592 288.751 286.592C307.498 286.592 317.89 270.841 317.89 270.841L348.862 217.862V217.81Z" fill="url(#paint3_linear_710_1123)"/>
<path d="M310.811 214.436C310.811 214.436 323.584 218.949 313.346 232.031" stroke="white" stroke-linecap="round" stroke-linejoin="round"/>
<path d="M292.664 218.059C292.664 218.059 310.065 233.996 319.692 233.883C329.318 233.769 340.622 231.492 347.278 220.004" stroke="white" stroke-linecap="round" stroke-linejoin="round"/>
<path d="M294.807 238.675C294.807 238.675 306.742 249.272 320.096 245.867" stroke="white" stroke-linecap="round" stroke-linejoin="round"/>
<path d="M307.343 254.51C307.343 254.51 313.605 259.198 322.362 254.757" stroke="white" stroke-linecap="round" stroke-linejoin="round"/>
<path d="M278.524 261.05C278.524 261.05 293.017 275.426 315.738 265.946" stroke="white" stroke-linecap="round" stroke-linejoin="round"/>
<path d="M286.392 247.027C286.392 247.027 292.292 251.249 295.987 252.595" stroke="white" stroke-linecap="round" stroke-linejoin="round"/>
<path d="M330.871 190.084C330.871 190.084 344.069 194.4 345.653 211.818" stroke="white" stroke-linecap="round" stroke-linejoin="round"/>
<path d="M337.506 211.601C337.506 211.601 343.583 221.008 333.314 230.405" stroke="white" stroke-linecap="round" stroke-linejoin="round"/>
<path d="M260.72 272.269C260.72 272.269 293.844 313.749 317.912 265.242" stroke="white" stroke-linecap="round" stroke-linejoin="round"/>
<path d="M21.5103 169.416H29.2324" stroke="#FF6D66" stroke-linecap="round" stroke-linejoin="round"/>
<path d="M451.869 76.5098H459.591" stroke="#FF6D66" stroke-linecap="round" stroke-linejoin="round"/>
<path d="M244.686 23.5212H252.419" stroke="#FAD8B0" stroke-miterlimit="10"/>
<path d="M466.62 116.573L474.217 117.938" stroke="#FAD8B0" stroke-miterlimit="10"/>
<path d="M163.138 309.309H170.87" stroke="#A0C6F4" stroke-linecap="round" stroke-linejoin="round"/>
<path d="M483.264 215.575C484.676 215.575 485.821 214.431 485.821 213.018C485.821 211.607 484.676 210.462 483.264 210.462C481.852 210.462 480.707 211.607 480.707 213.018C480.707 214.431 481.852 215.575 483.264 215.575Z" fill="#91BA83"/>
<path d="M2.55679 92.8107C3.96886 92.8107 5.11358 91.6662 5.11358 90.2541C5.11358 88.8426 3.96886 87.6981 2.55679 87.6981C1.14471 87.6981 0 88.8426 0 90.2541C0 91.6662 1.14471 92.8107 2.55679 92.8107Z" fill="#91BA83"/>
</g>
<defs>
<linearGradient id="paint0_linear_710_1123" x1="93.0175" y1="154.514" x2="141.995" y2="154.683" gradientUnits="userSpaceOnUse">
<stop stop-color="#AA367C"/>
<stop offset="1" stop-color="#4A2FBD"/>
</linearGradient>
<linearGradient id="paint1_linear_710_1123" x1="68.0263" y1="186.616" x2="150.142" y2="186.806" gradientUnits="userSpaceOnUse">
<stop stop-color="#AA367C"/>
<stop offset="1" stop-color="#4A2FBD"/>
</linearGradient>
<linearGradient id="paint2_linear_710_1123" x1="308.288" y1="204.089" x2="357.083" y2="204.227" gradientUnits="userSpaceOnUse">
<stop stop-color="#AA367C"/>
<stop offset="1" stop-color="#4A2FBD"/>
</linearGradient>
<linearGradient id="paint3_linear_710_1123" x1="254.096" y1="248.565" x2="359.424" y2="249.067" gradientUnits="userSpaceOnUse">
<stop stop-color="#AA367C"/>
<stop offset="1" stop-color="#4A2FBD"/>
</linearGradient>
<clipPath id="clip0_710_1123">
<rect width="486" height="364" fill="white"/>
</clipPath>
</defs>
</svg>
